<svg id="Capa_1" xmlns="http://www.w3.org/2000/svg" viewBox="0 0 456.8 372.5"><style>.st0{fill:#FFFFFF;}</style><path class="st0" d="M448.9 239.5c-.9-1.2-23.1-28.9-61-56.8-50.7-37.3-105.9-56.9-159.6-56.9s-108.8 19.7-159.6 56.9c-37.9 27.9-60.1 55.6-61 56.8L0 249.4l7.8 9.9c.9 1.2 23.1 28.9 61 56.8 50.7 37.3 105.9 56.9 159.6 56.9s108.8-19.7 159.6-56.9c37.9-27.9 60.1-55.6 61-56.8l7.8-9.9-7.9-9.9zm-220.5 93.6c-46.2 0-83.7-37.5-83.7-83.7s37.5-83.7 83.7-83.7 83.7 37.5 83.7 83.7c0 46.1-37.6 83.7-83.7 83.7zM41.7 249.4c9.2-9.9 25.3-25.8 46.8-41.5 13.9-10.2 31.4-21.2 51.8-30.3-16 19.6-25.6 44.6-25.6 71.8s9.6 52.2 25.6 71.8c-20.3-9.1-37.9-20.1-51.8-30.3-21.5-15.7-37.6-31.6-46.8-41.5zm326.6 41.5c-13.9 10.2-31.4 21.2-51.8 30.3 16-19.6 25.6-44.6 25.6-71.8s-9.6-52.2-25.6-71.8c20.3 9.1 37.9 20.1 51.8 30.3 21.5 15.7 37.6 31.6 46.8 41.5-9.2 9.9-25.3 25.8-46.8 41.5z"/><path class="st0" d="M223.6 189.8c-27.5 4-50.8 31.4-41.8 59.6 8.2-20.3 25.5-34 45.8-32.9 16.3.9 34 18.2 33.6 32.2 1.5 22.4-12.7 39-32.9 47.2 46.7 15.2 73.2-44.4 51.8-79.4-11.9-19.6-34.1-29.3-56.5-26.7zM81.4 135.4c-2.6 0-5.1-1-7.1-2.9L14.9 73c-3.9-3.9-3.9-10.2 0-14.1s10.2-3.9 14.1 0l59.5 59.5c3.9 3.9 3.9 10.2 0 14.1-1.9 2-4.5 2.9-7.1 2.9zM375.4 135.4c-2.6 0-5.1-1-7.1-2.9-3.9-3.9-3.9-10.2 0-14.1l59.5-59.5c3.9-3.9 10.2-3.9 14.1 0s3.9 10.2 0 14.1l-59.5 59.5c-1.9 2-4.5 2.9-7 2.9zM228.4 104.6c-5.5 0-10-4.5-10-10V10.4c0-5.5 4.5-10 10-10s10 4.5 10 10v84.1c0 5.6-4.5 10.1-10 10.1z"/></svg>